<svg width="128" height="128" viewBox="0 0 128 128" fill="none" xmlns="http://www.w3.org/2000/svg">
<g clip-path="url(#clip0_929_1542)">
<path d="M81.7421 64.4038C82.0156 64.9829 82.4008 66.0428 82.3769 67.4241C82.167 66.9247 81.3861 65.8144 80.3608 64.789C79.3833 65.0626 78.366 65.3389 77.3009 65.5912C76.4774 65.8011 74.7483 66.2686 72.9739 66.7813C73.2873 67.0708 73.6061 67.4082 73.9142 67.7934C74.7164 68.7868 75.4867 70.0433 76.1375 71.6478C75.6222 71.0368 72.8384 68.7736 69.9697 67.6154C68.5088 68.0351 67.4304 68.3246 67.4304 68.3246C65.9775 68.739 64.4953 69.2198 62.968 69.7856C64.2775 70.556 65.6322 71.5999 67.0054 73.0105C67.9935 74.0226 68.9843 75.1807 69.9671 76.5939C67.5579 74.9709 62.5191 72.4314 58.1868 72.0993C56.4071 73.1406 54.6806 74.4104 52.885 75.9192C55.6554 76.74 58.7632 78.4587 62.3464 82.0076C62.9388 82.5867 63.5577 83.2163 64.1686 83.9175C60.4472 81.7181 53.9023 79.9356 48.6935 80.1641C47.1689 81.9439 45.6176 83.968 44.2789 86.2631C47.8515 86.0214 52.3777 86.8608 58.3302 90.4389C59.1404 90.9224 59.9718 91.4377 60.8218 92.0434C55.9078 90.4097 46.2206 90.0856 41.5403 92.2214C41.2933 93.0103 40.6426 95.8526 40.6585 98.9048C50.1332 97.1091 55.6023 98.7614 61.4646 100.384C64.5033 75.9697 79.649 72.8856 95.0975 59.6038H95.0895C92.3191 60.9346 87.8779 62.6559 81.7394 64.4065L81.7421 64.4038Z" fill="white"/>
<path d="M63.996 0C28.7056 0 0 28.7127 0 63.9947C0 99.2766 28.7056 128.003 63.996 128.003C99.2864 128.003 128 99.2819 128 63.9947C128 28.7074 99.2864 0 63.996 0ZM63.9482 121.85C62.9096 121.85 61.8896 121.819 60.8776 121.755C60.3172 121.673 59.7195 121.574 59.098 121.465C44.2152 119.199 38.2839 109.865 36.9478 101.835C35.2054 91.427 39.3092 85.7105 41.6387 82.1749C49.0416 71.3024 59.1272 66.5315 67.8422 64.1248C67.8422 64.1248 75.6302 61.9413 77.7206 61.41C87.708 58.9529 94.1652 56.3815 97.1216 54.7107C99.4644 53.3931 102.615 50.936 104.501 47.4534C104.501 47.4534 107.112 43.453 106.596 38.6848C105.969 32.8195 101.709 29.7992 97.8095 29.5256C97.4403 29.5256 97.0791 29.5123 96.7099 29.5256C95.2357 29.5893 93.7747 30.0887 92.5901 30.8591C91.4453 31.6162 90.5581 32.7398 90.0508 33.991C90.0322 33.991 89.6284 34.8729 89.6284 35.9832V36.0151C89.6284 38.8574 91.9499 41.1871 94.8054 41.1871C97.6608 41.1871 99.9743 38.8574 99.9743 36.0151C99.9743 35.2129 99.7911 34.4877 99.4883 33.797C100.869 34.6179 101.648 36.047 101.897 37.5744C101.988 38.1535 102.036 38.8282 101.988 39.5507C101.961 40.0767 101.879 40.6425 101.746 41.1844C101.207 43.0492 100.12 44.7493 97.0047 45.841C95.7696 46.1943 94.4654 46.4972 93.0841 46.7097C93.1027 48.1547 92.7415 49.9079 91.3045 51.8019C91.0867 52.0915 90.7971 52.3651 90.4837 52.6573C91.1531 50.92 91.1292 48.8162 90.7493 47.0656C89.0865 47.2622 87.3547 47.4056 85.5272 47.5331C85.7955 49.2837 85.6654 51.5496 84.0371 54.1023C83.806 54.4716 83.5165 54.8408 83.1685 55.1941C83.8644 52.7503 83.4156 49.8601 82.5762 47.6952C80.855 47.7749 79.0965 47.8546 77.2956 47.9475C77.795 49.9876 77.9464 52.814 76.0127 56.1557C75.771 56.5754 75.4336 57.0244 75.0671 57.4574C75.8374 54.2936 74.9555 50.5827 73.6752 48.1096C71.715 48.2211 69.7015 48.3672 67.6722 48.5426C68.3602 50.8058 68.6098 53.7783 67.0825 57.4706C66.8568 58.0019 66.5433 58.581 66.1688 59.1415H66.1608C66.5619 55.5952 65.2072 51.7222 63.4993 48.9915C61.2787 49.281 59.0236 49.6343 56.7552 50.1151C57.993 52.4448 58.9492 55.6563 58.3064 60.0447C58.2161 60.6662 58.0249 61.3755 57.7858 62.0821C57.3024 57.9196 54.8215 53.7756 52.3406 51.1777C49.9208 51.8338 47.5089 52.6546 45.121 53.6641C47.0467 55.6909 48.9566 58.7404 49.4267 63.4926C49.4878 64.1859 49.4798 64.9536 49.4161 65.7559C47.7453 61.4233 43.7876 57.7283 40.3983 55.8157C38.1033 56.9898 35.9916 58.3074 34.0526 59.6701C36.5919 61.2427 39.4261 63.8619 41.1367 68.7629C41.3784 69.4217 41.7636 70.8641 41.8937 71.6849C39.0595 67.5542 33.7179 64.2922 29.7362 63.1553C27.6857 64.9696 25.8901 66.845 24.3441 68.6805C28.2249 70.7658 33.354 75.0718 35.4657 80.4722V80.4854C31.7948 76.9339 24.9551 74.8167 20.0384 74.4316C17.6239 78.1425 16.4021 80.9052 16.2029 81.3195C23.5367 83.28 27.1491 85.7716 28.9341 87.7586V87.7719C30.4959 89.3152 30.0789 91.1641 30.0789 91.1641C29.8505 92.2558 29.6698 93.3157 29.5184 94.3597C28.456 101.378 29.0403 106.903 30.6234 111.273C15.7779 100.801 6.07209 83.519 6.07209 63.9734C6.0774 32.0279 31.9887 6.12028 63.9482 6.12028C95.9077 6.12028 121.79 32.0279 121.79 63.9814C121.79 95.9349 95.8918 121.85 63.9482 121.85Z" fill="white"/>
</g>
<defs>
<clipPath id="clip0_929_1542">
<rect width="128" height="128" fill="white"/>
</clipPath>
</defs>
</svg>
