<svg width="56" height="56" viewBox="0 0 56 56" fill="none" xmlns="http://www.w3.org/2000/svg">
<path d="M35.5922 27.3813C35.7116 27.6273 35.8745 28.0833 35.8636 28.6731C35.7732 28.4596 35.4402 27.9856 34.9986 27.5441C34.5787 27.6599 34.1444 27.7793 33.6884 27.8879C33.3337 27.9783 32.5953 28.1774 31.8352 28.3981C31.9691 28.5211 32.1067 28.6659 32.237 28.8323C32.5808 29.2593 32.9102 29.7948 33.1889 30.4823C32.9681 30.2218 31.7773 29.2521 30.5467 28.7563C29.9205 28.9372 29.4609 29.0603 29.4609 29.0603C28.8383 29.2376 28.2049 29.4438 27.5498 29.6863C28.1108 30.0156 28.6899 30.4643 29.2799 31.0685C29.7034 31.5028 30.1268 31.9985 30.5467 32.6028C29.5151 31.908 27.358 30.8225 25.5012 30.6777C24.7375 31.1228 23.9991 31.6692 23.2318 32.3133C24.419 32.6643 25.7509 33.3989 27.2856 34.9223C27.5389 35.1683 27.8032 35.4397 28.0674 35.74C26.4748 34.7992 23.6734 34.0357 21.4402 34.1334C20.7887 34.8969 20.1227 35.7617 19.5508 36.746C21.0818 36.641 23.0182 37.0029 25.5663 38.5335C25.9138 38.7398 26.2685 38.9605 26.6341 39.221C24.5312 38.5227 20.3833 38.3815 18.3781 39.297C18.2732 39.6335 17.9945 40.853 17.9981 42.1593C22.0555 41.3885 24.3973 42.0977 26.9055 42.7925C28.2049 32.3386 34.691 31.0179 41.3073 25.3296C40.1201 25.8977 38.2199 26.6359 35.5922 27.3849V27.3813Z" fill="black"/>
<path d="M28 0C12.5341 0 0 12.5345 0 28C0 43.4655 12.5341 56 28 56C43.4659 56 56 43.4655 56 28C56 12.5345 43.4623 0 28 0ZM27.971 52.6565C27.5259 52.6565 27.0915 52.642 26.6572 52.6167C26.4183 52.5805 26.1613 52.5407 25.8971 52.4937C19.5233 51.5239 16.986 47.5255 16.4105 44.0879C15.6649 39.6335 17.4204 37.1838 18.4193 35.6712C21.59 31.0178 25.908 28.9734 29.6396 27.9421C29.6396 27.9421 32.9731 27.0085 33.8707 26.7806C38.1489 25.7276 40.9105 24.6276 42.1774 23.9111C43.1799 23.3466 44.53 22.2936 45.3371 20.8028C45.3371 20.8028 46.4555 19.0912 46.2347 17.0468C45.9669 14.5355 44.1427 13.2437 42.4705 13.1243C42.3113 13.1243 42.1593 13.1171 42 13.1243C41.3666 13.1533 40.7441 13.3668 40.2373 13.696C39.7451 14.0181 39.3687 14.503 39.1515 15.0385C39.1515 15.0385 38.9705 15.4185 38.9705 15.8925V15.907C38.9705 17.1228 39.9659 18.1215 41.1892 18.1215C42.4126 18.1215 43.4043 17.1228 43.4043 15.907C43.4043 15.5632 43.3247 15.252 43.1944 14.9589C43.7844 15.3099 44.1174 15.9214 44.226 16.5764C44.2658 16.8224 44.2839 17.1119 44.2658 17.4231C44.2549 17.6475 44.2187 17.8899 44.1608 18.1215C43.9292 18.9212 43.4659 19.6485 42.1303 20.1153C41.6019 20.2673 41.0445 20.3975 40.4509 20.488C40.4581 21.1067 40.3025 21.8558 39.6908 22.6663C39.5967 22.7894 39.4736 22.9088 39.3397 23.0318C39.6256 22.29 39.6148 21.3854 39.4519 20.6363C38.7389 20.7196 37.9969 20.7811 37.2151 20.8354C37.3309 21.5844 37.273 22.5541 36.5781 23.6469C36.4804 23.8062 36.3537 23.9617 36.2053 24.1137C36.5021 23.068 36.3102 21.8304 35.9519 20.9041C35.2136 20.9367 34.4643 20.9729 33.6934 21.0127C33.9069 21.8847 33.9721 23.0969 33.1432 24.5262C33.0383 24.7072 32.8935 24.8989 32.7379 25.0835C33.0672 23.7265 32.6908 22.138 32.1406 21.0814C31.3009 21.1285 30.4395 21.19 29.5708 21.266C29.864 22.2357 29.9726 23.5094 29.3175 25.0907C29.2198 25.3187 29.0858 25.5647 28.9266 25.8072C29.1003 24.2874 28.5176 22.6301 27.7865 21.4614C26.8345 21.5844 25.8718 21.7364 24.8981 21.9426C25.4266 22.9413 25.8392 24.3127 25.5641 26.1944C25.5243 26.4585 25.4447 26.7625 25.3397 27.0664C25.1334 25.2861 24.0693 23.5094 23.0088 22.3986C21.9736 22.6808 20.9385 23.0318 19.9178 23.4624C20.743 24.3308 21.561 25.6371 21.7601 27.6707C21.7854 27.9674 21.7818 28.2967 21.7565 28.6405C21.0398 26.7842 19.3459 25.2029 17.8945 24.3851C16.91 24.8881 16.0052 25.4526 15.1763 26.0352C16.2622 26.7082 17.4783 27.8299 18.2094 29.9287C18.3144 30.2109 18.4772 30.8297 18.5315 31.1807C17.319 29.4112 15.0315 28.0145 13.3268 27.5296C12.4473 28.3076 11.6799 29.1109 11.0176 29.8961C12.6789 30.7899 14.8759 32.6317 15.7808 34.9439V34.9511C14.2099 33.4314 11.2782 32.5231 9.17528 32.3603C8.14012 33.9488 7.61892 35.1321 7.53206 35.3094C10.6701 36.1489 12.2192 37.2163 12.9829 38.0667V38.0739C13.6525 38.7361 13.4752 39.5249 13.4752 39.5249C13.3775 39.9917 13.3014 40.444 13.2363 40.8927C12.7802 43.8997 13.03 46.2626 13.7104 48.1334C7.35471 43.65 3.19597 36.2502 3.19597 27.8806C3.18873 14.1954 14.2859 3.10468 27.971 3.10468C41.6562 3.10468 52.7389 14.199 52.7389 27.8806C52.7389 41.5622 41.6489 52.6601 27.971 52.6601V52.6565Z" fill="black"/>
</svg>
