<svg width="154" height="68" viewBox="0 0 154 68" fill="none" xmlns="http://www.w3.org/2000/svg">
<g clip-path="url(#clip0_265_1225)">
<path d="M79.4358 48.6579H84.487V51.0262H87.3741V45.9712H74.4192V48.6928H76.4189V60.9707H74.4192V63.688H81.7645V60.9707H79.4401V56.343H84.6255V53.7304H79.4401V48.6666L79.4358 48.6579ZM137.934 48.6884H140.12V45.9668H135.341L129.948 55.8196L124.551 45.9668H119.742V48.6884H121.932L121.369 60.9663H117.045L114.349 56.1468C116.266 55.3617 117.66 53.617 117.66 51.3272C117.66 47.7202 114.773 45.9712 110.743 45.9712H103.93V48.6928H105.934V60.9707H102.402L98.0219 48.6666H99.9567V45.9755H90.0187V48.6666H91.9362L87.5515 60.9707H86.0323V63.688H92.7889V60.9881H90.655L91.6462 58.0877H98.2081L99.1993 60.9881H97.1692V63.688H111.146V60.9707H108.955V56.9842C109.332 57.0103 109.834 57.0104 110.397 57.0104C110.743 57.0104 111.085 56.9842 111.466 56.958L114.994 63.688H126.447V60.9707H124.339L124.685 51.8419L129.71 60.7264H130.108L135.129 51.8419L135.48 60.9707H133.372V63.688H140.583V60.9707H138.497L137.943 48.6928L137.934 48.6884ZM92.4643 55.5492L94.9228 48.5794L97.3813 55.5492H92.4643ZM110.665 54.4196C109.704 54.4196 109.276 54.3934 108.955 54.3672V48.6884H110.583C113.011 48.6884 114.53 49.5782 114.53 51.4362C114.53 53.2943 112.933 54.4239 110.665 54.4239V54.4196ZM148.002 53.2114C146.236 52.5659 144.773 51.9204 144.773 50.468C144.773 49.1726 145.786 48.2915 147.517 48.2915C148.612 48.2915 149.361 48.5358 149.846 48.828C149.738 49.0417 149.655 49.2249 149.655 49.6611C149.655 50.5421 150.348 51.458 151.577 51.458C152.594 51.458 153.36 50.734 153.36 49.4648C153.36 47.3407 150.828 45.644 147.547 45.644C143.99 45.644 141.721 47.8554 141.721 50.6773C141.721 53.9616 144.02 55.0084 147.275 56.1991C149.041 56.8141 150.512 57.5163 150.512 58.9687C150.512 60.504 149.279 61.3632 147.357 61.3632C146.206 61.3632 145.219 61.071 144.578 60.613C144.738 60.2946 144.821 59.9675 144.821 59.5401C144.821 58.6721 144.072 57.7867 142.894 57.7867C141.799 57.7867 141.051 58.6154 141.051 59.8934C141.051 62.0393 143.851 64.0063 147.327 64.0063C150.802 64.0063 153.521 62.0916 153.521 58.7288C153.521 55.366 151.144 54.3454 147.998 53.207" fill="#231F20"/>
<path d="M80.7171 22.1263C84.3183 22.1263 86.9067 20.2115 86.9067 16.8444C86.9067 13.4772 84.5304 12.461 81.3837 11.3269C79.6177 10.6814 78.1504 10.0316 78.1504 8.58787C78.1504 7.29248 79.1589 6.40707 80.8989 6.40707C81.994 6.40707 82.7385 6.65132 83.2232 6.93919C83.1194 7.16163 83.0414 7.34918 83.0414 7.78098C83.0414 8.67074 83.7253 9.58667 84.9589 9.58667C85.9718 9.58667 86.7466 8.86265 86.7466 7.59343C86.7466 5.46497 84.2101 3.76831 80.9249 3.76831C77.3712 3.76831 75.1032 5.984 75.1032 8.80595C75.1032 12.0859 77.3929 13.137 80.6565 14.3277C82.4225 14.9471 83.8898 15.6449 83.8898 17.0973C83.8898 18.6283 82.6649 19.4962 80.7431 19.4962C79.5917 19.4962 78.6048 19.1953 77.9599 18.7329C78.1244 18.4102 78.2023 18.0918 78.2023 17.66C78.2023 16.7964 77.4578 15.9066 76.2805 15.9066C75.1854 15.9066 74.4409 16.7397 74.4409 18.0133C74.4409 20.1679 77.2414 22.1306 80.7171 22.1306V22.1263ZM95.4033 19.0862H93.2694V6.80834H95.4033V4.09107H88.11V6.80834H90.2482V19.0819H88.11V21.7991H95.4033V19.0819V19.0862ZM109.549 16.6132H106.636V19.1168H101.801V6.80834H104.125V4.09107H96.7754V6.80834H98.7795V19.0819H96.7754V21.7991H109.544V16.6088L109.549 16.6132ZM146.66 14.271C148.582 13.4903 149.976 11.7457 149.976 9.4471C149.976 5.84007 147.084 4.09543 143.046 4.09543H116.877V6.8127H118.824L115.041 16.526L111.241 6.8127H113.085V4.09543H106.142V6.8127H107.748L114.128 21.991H115.838L122.218 6.8127H124.841V19.0862H122.837V21.8035H143.449V19.0862H141.263V15.1041C141.635 15.1346 142.141 15.1346 142.704 15.1346C143.042 15.1346 143.397 15.1041 143.773 15.0823L147.296 21.8079H151.357V19.0906H149.352L146.656 14.271H146.66ZM138.241 19.0906H135.978V16.7484H133.095V19.1211H127.849V14.1096H133.169V11.5276H127.849V6.78217H133.065V9.15052H135.947V6.80834H138.246V19.0819L138.241 19.0906ZM142.964 12.5482C142.003 12.5482 141.579 12.5264 141.263 12.4959V6.80834H142.89C145.314 6.80834 146.842 7.6981 146.842 9.55178C146.842 11.4055 145.24 12.5395 142.964 12.5395V12.5482ZM74.4842 27.7483H76.4839V40.0219H74.4842V42.7435H81.8252V40.0219H79.5008V35.3986H84.6819V32.7773H79.5008V27.7178H84.5477V30.0949H87.4304V25.0267H74.4842V27.7483ZM98.7795 40.048H93.5378V35.0409H98.8617V32.4632H93.5378V27.7178H98.7492V30.0949H101.636V25.0267H88.5212V27.7483H90.5252V40.0219H88.5212V42.7435H101.667V37.6753H98.7795V40.0437V40.048ZM129.39 27.7483H131.58V36.1488L122.928 25.0223H118.361V27.744H120.357V40.0175H115.981L113.28 35.2023C115.21 34.4216 116.595 32.6726 116.595 30.3784C116.595 26.7713 113.712 25.0223 109.674 25.0223H102.865V27.744H104.87V40.0175H102.865V42.7391H110.081V40.0175H107.891V36.0354C108.263 36.0615 108.778 36.0615 109.336 36.0615C109.678 36.0615 110.029 36.0354 110.397 36.0048L113.925 42.7391H125.486V40.0175H123.3V30.518L132.883 42.8264L134.51 42.7697V27.7483H136.437V25.0267H129.386V27.7483H129.39ZM109.6 33.4838C108.64 33.4838 108.211 33.4533 107.891 33.4228V27.7483H109.518C111.951 27.7483 113.474 28.6337 113.474 30.4961C113.474 32.3585 111.873 33.4838 109.6 33.4838Z" fill="#231F20"/>
<path d="M43.5362 33.0043C43.6791 33.3009 43.8738 33.8504 43.8609 34.5614C43.7526 34.304 43.3544 33.7327 42.8264 33.2005C42.3243 33.3401 41.8049 33.484 41.2595 33.6149C40.8353 33.7239 39.9523 33.9638 39.0433 34.2299C39.2035 34.3782 39.368 34.5526 39.5238 34.7533C39.935 35.2679 40.3289 35.9135 40.6622 36.7422C40.3981 36.4281 38.9741 35.2592 37.5024 34.6617C36.7536 34.8798 36.2039 35.0281 36.2039 35.0281C35.4594 35.2418 34.702 35.4904 33.9185 35.7826C34.5894 36.1795 35.282 36.7203 35.9875 37.4487C36.4939 37.9721 37.0003 38.5697 37.5024 39.298C36.2688 38.4606 33.6891 37.1521 31.4687 36.9777C30.5554 37.5142 29.6724 38.1728 28.7548 38.9491C30.1745 39.3722 31.7673 40.2576 33.6026 42.0938C33.9055 42.3904 34.2215 42.7175 34.5375 43.0795C32.633 41.9455 29.2828 41.0252 26.6122 41.143C25.8331 42.0633 25.0367 43.1057 24.3528 44.2921C26.1837 44.1656 28.4994 44.6017 31.5466 46.4467C31.9621 46.6953 32.3863 46.9614 32.8234 47.2754C30.3086 46.4336 25.3483 46.2635 22.9504 47.367C22.8248 47.7726 22.4916 49.2425 22.4959 50.817C27.348 49.888 30.1485 50.7429 33.1481 51.5803C34.702 38.9797 42.4585 37.3877 50.3708 30.5312C48.9511 31.216 46.6786 32.1058 43.5362 33.0086V33.0043Z" fill="#231F20"/>
<path d="M34.4596 0C15.9643 0 0.975098 15.1086 0.975098 33.75C0.975098 52.3914 15.9643 67.5 34.4596 67.5C52.9548 67.5 67.944 52.3914 67.944 33.75C67.944 15.1086 52.9505 0 34.4596 0ZM34.4249 63.4699C33.8926 63.4699 33.3731 63.4524 32.8537 63.4219C32.5681 63.3783 32.2607 63.3303 31.9448 63.2736C24.3225 62.1047 21.2883 57.2852 20.6 53.1416C19.7084 47.7725 21.8077 44.8197 23.0023 42.9966C26.794 37.3876 31.9578 34.9233 36.4203 33.6802C36.4203 33.6802 40.4068 32.5549 41.4802 32.2801C46.5964 31.0109 49.899 29.685 51.4139 28.8214C52.6129 28.141 54.2274 26.8718 55.1926 25.0748C55.1926 25.0748 56.5301 23.0118 56.266 20.5475C55.9457 17.5205 53.7642 15.9634 51.7645 15.8195C51.5741 15.8195 51.3923 15.8108 51.2018 15.8195C50.4443 15.8544 49.6999 16.1117 49.0939 16.5086C48.5052 16.8968 48.0551 17.4813 47.7954 18.1268C47.7954 18.1268 47.5789 18.5847 47.5789 19.1561V19.1736C47.5789 20.6391 48.7693 21.8429 50.2323 21.8429C51.6952 21.8429 52.8812 20.6391 52.8812 19.1736C52.8812 18.7592 52.786 18.3841 52.6302 18.0308C53.3357 18.4539 53.7339 19.191 53.8638 19.9805C53.9114 20.277 53.933 20.626 53.9114 21.0011C53.8984 21.2715 53.8551 21.5637 53.7859 21.8429C53.5088 22.8068 52.9548 23.6834 51.3576 24.2461C50.7257 24.4293 50.0591 24.5863 49.3493 24.6953C49.3579 25.4412 49.1718 26.344 48.4403 27.321C48.3278 27.4693 48.1806 27.6132 48.0204 27.7615C48.3624 26.8674 48.3494 25.777 48.1546 24.8742C47.3019 24.9745 46.4146 25.0486 45.4797 25.114C45.6182 26.0169 45.5489 27.1858 44.7179 28.503C44.601 28.6949 44.4495 28.8825 44.272 29.0657C44.627 27.8052 44.3976 26.3135 43.9691 25.1969C43.0861 25.2362 42.1901 25.2798 41.2681 25.3278C41.5235 26.3789 41.6014 27.84 40.6102 29.5629C40.4847 29.781 40.3116 30.0121 40.1254 30.2346C40.5193 28.599 40.0692 26.6842 39.4113 25.4106C38.4071 25.4673 37.3769 25.5415 36.3381 25.6331C36.6887 26.802 36.8185 28.3373 36.0351 30.2433C35.9182 30.5181 35.7581 30.8146 35.5676 31.1069C35.7754 29.275 35.0785 27.2774 34.2042 25.8686C33.0658 26.0169 31.9145 26.2001 30.7501 26.4487C31.3821 27.6525 31.8755 29.3055 31.5466 31.5736C31.4989 31.892 31.4037 32.2583 31.2782 32.6247C31.0315 30.4788 29.7589 28.3373 28.4907 26.9983C27.2528 27.3385 26.0149 27.7615 24.7943 28.2806C25.7811 29.3273 26.7594 30.9019 26.9974 33.3531C27.0277 33.7107 27.0234 34.1077 26.9931 34.522C26.1361 32.2845 24.1104 30.3785 22.3747 29.3928C21.1974 29.999 20.1153 30.6794 19.1241 31.3817C20.4226 32.1929 21.8769 33.545 22.7513 36.0747C22.8768 36.4149 23.0716 37.1608 23.1365 37.5838C21.6865 35.451 18.9509 33.7674 16.9123 33.183C15.8605 34.1207 14.9428 35.089 14.1507 36.0355C16.1375 37.1128 18.7648 39.3328 19.8469 42.1199V42.1286C17.9684 40.2967 14.4624 39.202 11.9476 39.0057C10.7097 40.9205 10.0864 42.3467 9.98249 42.5604C13.7352 43.5723 15.5878 44.859 16.5011 45.8839V45.8927C17.3018 46.6908 17.0897 47.6417 17.0897 47.6417C16.9728 48.2043 16.882 48.7495 16.804 49.2904C16.2587 52.9148 16.5573 55.763 17.3711 58.0179C9.7704 52.6139 4.79707 43.6944 4.79707 33.6061C4.78841 17.1105 18.0593 3.74225 34.4249 3.74225C50.7906 3.74225 64.0442 17.1149 64.0442 33.6061C64.0442 50.0973 50.782 63.4743 34.4249 63.4743V63.4699Z" fill="#231F20"/>
<path d="M138.964 26.693C139.159 26.693 139.259 26.6101 139.259 26.4618C139.259 26.3005 139.15 26.2263 138.956 26.2263H138.83V26.693H138.969H138.964ZM138.319 27.3211H138.488V26.2307H138.319V25.9036H138.977C139.349 25.9036 139.644 26.0737 139.644 26.4357C139.644 26.6581 139.518 26.8282 139.358 26.9111L139.544 27.3254H139.722V27.6526H139.302L139.029 27.0158H138.834V27.3254H139.003V27.6526H138.328V27.3254L138.319 27.3211ZM137.601 26.8108C137.601 27.6569 138.228 28.2937 138.973 28.2937C139.717 28.2937 140.345 27.6569 140.345 26.8108C140.345 25.9646 139.717 25.2929 138.973 25.2929C138.228 25.2929 137.601 25.9297 137.601 26.8108ZM137.211 26.7977C137.211 25.7247 137.995 24.9004 138.977 24.9004C139.96 24.9004 140.743 25.7291 140.743 26.7977C140.743 27.8663 139.96 28.6863 138.977 28.6863C137.995 28.6863 137.211 27.8619 137.211 26.7977Z" fill="#231F20"/>
</g>
<defs>
<clipPath id="clip0_265_1225">
<rect width="152.55" height="67.5" fill="white" transform="translate(0.975098)"/>
</clipPath>
</defs>
</svg>
