<svg width="400" height="176" viewBox="0 0 400 176" fill="none" xmlns="http://www.w3.org/2000/svg">
<g clip-path="url(#clip0_509_1621)">
<path d="M205.732 126.871H218.976V133.046H226.547V119.866H192.578V126.962H197.821V158.975H192.578V166.061H211.838V158.975H205.743V146.909H219.34V140.097H205.743V126.894L205.732 126.871ZM359.119 126.951H364.851V119.854H352.321L338.18 145.545L324.027 119.854H311.418V126.951H317.161L315.685 158.964H304.347L297.276 146.398C302.304 144.351 305.959 139.802 305.959 133.831C305.959 124.426 298.389 119.866 287.822 119.866H269.958V126.962H275.213V158.975H265.952L254.466 126.894H259.539V119.877H233.481V126.894H238.509L227.012 158.975H223.028V166.061H240.745V159.021H235.149L237.748 151.458H254.954L257.553 159.021H252.23V166.061H288.878V158.975H283.135V148.581C284.122 148.649 285.439 148.649 286.914 148.649C287.822 148.649 288.719 148.581 289.718 148.513L298.967 166.061H328.998V158.975H323.471L324.379 135.173L337.556 158.339H338.6L351.765 135.173L352.684 158.975H347.157V166.061H366.065V158.975H360.595L359.142 126.962L359.119 126.951ZM239.893 144.84L246.34 126.666L252.786 144.84H239.893ZM287.618 141.894C285.098 141.894 283.975 141.826 283.135 141.758V126.951H287.402C293.769 126.951 297.753 129.271 297.753 134.115C297.753 138.96 293.565 141.905 287.618 141.905M385.518 138.744C380.888 137.061 377.052 135.378 377.052 131.591C377.052 128.213 379.707 125.916 384.247 125.916C387.119 125.916 389.082 126.553 390.353 127.315C390.069 127.872 389.854 128.349 389.854 129.487C389.854 131.784 391.67 134.172 394.893 134.172C397.56 134.172 399.569 132.284 399.569 128.975C399.569 123.437 392.929 119.013 384.327 119.013C374.997 119.013 369.05 124.779 369.05 132.137C369.05 140.7 375.077 143.429 383.612 146.534C388.242 148.138 392.101 149.968 392.101 153.756C392.101 157.759 388.866 159.999 383.827 159.999C380.808 159.999 378.221 159.237 376.541 158.043C376.961 157.213 377.176 156.36 377.176 155.245C377.176 152.982 375.213 150.674 372.126 150.674C369.255 150.674 367.291 152.834 367.291 156.166C367.291 161.762 374.634 166.891 383.748 166.891C392.861 166.891 399.989 161.898 399.989 153.13C399.989 144.362 393.758 141.701 385.507 138.733" fill="white"/>
<path d="M209.091 57.6923C218.534 57.6923 225.321 52.6998 225.321 43.9203C225.321 35.1408 219.09 32.491 210.839 29.5341C206.208 27.851 202.361 26.1565 202.361 22.3922C202.361 19.0146 205.005 16.706 209.568 16.706C212.439 16.706 214.391 17.3429 215.662 18.0935C215.39 18.6734 215.186 19.1625 215.186 20.2883C215.186 22.6083 216.979 24.9965 220.213 24.9965C222.869 24.9965 224.901 23.1087 224.901 19.7993C224.901 14.2496 218.25 9.82568 209.636 9.82568C200.318 9.82568 194.371 15.6029 194.371 22.9609C194.371 31.5129 200.375 34.2537 208.932 37.3584C213.563 38.9733 217.41 40.7929 217.41 44.5799C217.41 48.5716 214.198 50.8347 209.159 50.8347C206.14 50.8347 203.552 50.05 201.861 48.8446C202.293 48.003 202.497 47.1728 202.497 46.0469C202.497 43.7952 200.545 41.4752 197.458 41.4752C194.586 41.4752 192.634 43.6473 192.634 46.9681C192.634 52.5861 199.977 57.7037 209.091 57.7037M247.6 49.7657H242.004V17.7523H247.6V10.6672H228.476V17.7523H234.082V49.7543H228.476V56.8394H247.6V49.7543V49.7657ZM284.69 43.3175H277.051V49.8453H264.374V17.7523H270.469V10.6672H251.197V17.7523H256.452V49.7543H251.197V56.8394H284.678V43.3062L284.69 43.3175ZM382 37.2105C387.039 35.1749 390.694 30.6259 390.694 24.6326C390.694 15.2276 383.112 10.6786 372.523 10.6786H303.904V17.7637H309.012L299.092 43.0901L289.127 17.7637H293.962V10.6786H275.758V17.7637H279.968L296.697 57.3398H301.18L317.909 17.7637H324.787V49.7657H319.532V56.8508H373.579V49.7657H367.847V39.3827C368.823 39.4623 370.151 39.4623 371.626 39.4623C372.512 39.4623 373.442 39.3827 374.43 39.3258L383.668 56.8621H394.314V49.7771H389.059L381.988 37.2105H382ZM359.925 49.7771H353.989V43.6701H346.431V49.8567H332.675V36.7898H346.624V30.0573H332.675V17.7068H346.351V23.882H353.91V17.775H359.937V49.7771H359.925ZM372.307 32.7184C369.788 32.7184 368.676 32.6616 367.847 32.582V17.775H372.114C378.47 17.775 382.477 20.095 382.477 24.9283C382.477 29.7616 378.277 32.7184 372.307 32.7184ZM192.736 72.3741H197.98V104.376H192.736V111.473H211.985V104.376H205.89V92.3214H219.476V85.4866H205.89V72.2945H219.124V78.4925H226.683V65.2777H192.736V72.3741ZM256.441 104.444H242.697V91.3889H256.657V84.6678H242.697V72.2945H256.361V78.4925H263.932V65.2777H229.543V72.3741H234.797V104.376H229.543V111.473H264.011V98.2578H256.441V104.433V104.444ZM336.704 72.3741H342.447V94.2775L319.759 65.2664H307.786V72.3628H313.018V104.365H301.544L294.462 91.8097C299.523 89.774 303.155 85.2136 303.155 79.2317C303.155 69.8267 295.596 65.2664 285.007 65.2664H267.155V72.3628H272.41V104.365H267.155V111.461H286.074V104.365H280.331V93.9818C281.308 94.05 282.658 94.05 284.122 94.05C285.019 94.05 285.938 93.9818 286.903 93.9022L296.153 111.461H326.467V104.365H320.736V79.5956L345.863 111.689L350.131 111.541V72.3741H355.181V65.2777H336.693V72.3741H336.704ZM284.815 87.3289C282.295 87.3289 281.171 87.2493 280.331 87.1697V72.3741H284.599C290.977 72.3741 294.972 74.6828 294.972 79.5388C294.972 84.3948 290.773 87.3289 284.815 87.3289Z" fill="white"/>
<path d="M111.599 86.0551C111.974 86.8284 112.484 88.2614 112.45 90.1151C112.166 89.4441 111.122 87.9543 109.738 86.5669C108.421 86.9308 107.059 87.3061 105.629 87.6473C104.517 87.9316 102.202 88.5571 99.8182 89.2508C100.238 89.6374 100.669 90.0923 101.078 90.6155C102.156 91.9574 103.189 93.6405 104.063 95.8013C103.371 94.9825 99.6367 91.9347 95.7778 90.3766C93.8144 90.9453 92.373 91.3319 92.373 91.3319C90.4209 91.8892 88.4348 92.5374 86.3805 93.2994C88.1397 94.3343 89.9556 95.7444 91.8055 97.6436C93.1334 99.0083 94.4613 100.566 95.7778 102.466C92.5433 100.282 85.779 96.8703 79.9567 96.4154C77.562 97.8142 75.2467 99.5315 72.8406 101.556C76.5632 102.659 80.7398 104.967 85.552 109.755C86.3465 110.529 87.175 111.382 88.0035 112.325C83.0097 109.369 74.2252 106.969 67.2226 107.276C65.1797 109.676 63.0914 112.394 61.2982 115.487C66.099 115.157 72.171 116.294 80.161 121.105C81.2506 121.753 82.3628 122.447 83.5091 123.266C76.9151 121.071 63.9086 120.627 57.621 123.505C57.2919 124.562 56.418 128.395 56.4293 132.5C69.152 130.078 76.4951 132.307 84.3603 134.49C88.4348 101.635 108.773 97.4844 129.52 79.6069C125.797 81.3924 119.839 83.7124 111.599 86.0665V86.0551Z" fill="white"/>
<path d="M87.7993 0C39.3031 0 0 39.3942 0 88C0 136.606 39.3031 176 87.7993 176C136.296 176 175.599 136.606 175.599 88C175.599 39.3942 136.284 0 87.7993 0ZM87.7085 165.492C86.3126 165.492 84.9506 165.446 83.5887 165.367C82.8396 165.253 82.0338 165.128 81.2053 164.98C61.2189 161.932 53.263 149.366 51.4584 138.562C49.1204 124.562 54.6249 116.863 57.7573 112.11C67.6995 97.4846 81.2394 91.0592 92.9406 87.818C92.9406 87.818 103.393 84.884 106.208 84.1675C119.623 80.8581 128.283 77.4009 132.255 75.1491C135.399 73.375 139.632 70.0657 142.163 65.3802C142.163 65.3802 145.67 60.001 144.978 53.5756C144.138 45.6831 138.418 41.6232 133.174 41.2479C132.675 41.2479 132.198 41.2251 131.699 41.2479C129.713 41.3388 127.761 42.0098 126.172 43.0447C124.628 44.0569 123.448 45.5808 122.767 47.2639C122.767 47.2639 122.2 48.458 122.2 49.9478V49.9933C122.2 53.8144 125.321 56.9532 129.157 56.9532C132.993 56.9532 136.103 53.8144 136.103 49.9933C136.103 48.9129 135.853 47.9349 135.444 47.0137C137.294 48.1168 138.338 50.0388 138.679 52.0972C138.804 52.8705 138.861 53.7803 138.804 54.7583C138.77 55.4634 138.656 56.2254 138.475 56.9532C137.748 59.4665 136.296 61.7524 132.108 63.2194C130.451 63.6971 128.703 64.1065 126.841 64.3908C126.864 66.3355 126.376 68.6896 124.458 71.237C124.163 71.6237 123.777 71.999 123.357 72.3856C124.254 70.0543 124.22 67.2112 123.709 64.8571C121.473 65.1186 119.147 65.312 116.695 65.4826C117.058 67.8367 116.877 70.8845 114.698 74.3189C114.391 74.8193 113.994 75.3083 113.529 75.786C114.459 72.4994 113.858 68.61 112.734 65.6986C110.419 65.801 108.069 65.9147 105.652 66.0398C106.322 68.7806 106.526 72.5903 103.927 77.0825C103.598 77.6511 103.144 78.2538 102.656 78.8338C103.689 74.5691 102.508 69.5766 100.783 66.2559C98.15 66.4037 95.4489 66.5971 92.725 66.8359C93.6443 69.8837 93.9848 73.8868 91.9305 78.8566C91.6241 79.573 91.2042 80.3463 90.7048 81.1083C91.2496 76.3319 89.4223 71.1233 87.1297 67.45C84.1448 67.8367 81.1259 68.3143 78.0729 68.9625C79.7299 72.1013 81.0237 76.4115 80.1612 82.3251C80.0363 83.1553 79.7866 84.1106 79.4575 85.0659C78.8106 79.4707 75.4738 73.8868 72.1484 70.3955C68.9025 71.2825 65.6566 72.3856 62.456 73.739C65.0437 76.4683 67.6087 80.5738 68.2329 86.9651C68.3123 87.8977 68.301 88.9325 68.2215 90.0129C65.9743 84.1789 60.6628 79.2091 56.1117 76.6389C53.0246 78.2197 50.1873 79.9938 47.5882 81.8248C50.9931 83.94 54.8065 87.4655 57.0991 94.0615C57.4282 94.9486 57.9389 96.8933 58.1092 97.9964C54.3071 92.4353 47.1343 88.0455 41.7887 86.5216C39.0308 88.9667 36.6247 91.4913 34.5477 93.9592C39.7571 96.7682 46.6462 102.557 49.4836 109.824V109.846C44.5579 105.07 35.3649 102.216 28.7709 101.704C25.5249 106.696 23.8906 110.415 23.6182 110.972C33.4582 113.611 38.3157 116.966 40.7105 119.638V119.661C42.8101 121.742 42.254 124.221 42.254 124.221C41.9476 125.688 41.7092 127.11 41.5049 128.52C40.0749 137.971 40.858 145.397 42.9917 151.276C23.0621 137.186 10.0216 113.929 10.0216 87.6247C9.99886 44.6141 44.7963 9.75756 87.7085 9.75756C130.621 9.75756 165.373 44.6255 165.373 87.6247C165.373 130.624 130.598 165.503 87.7085 165.503V165.492Z" fill="white"/>
<path d="M361.821 69.5994C362.331 69.5994 362.592 69.3833 362.592 68.9966C362.592 68.5758 362.309 68.3825 361.798 68.3825H361.469V69.5994H361.832H361.821ZM360.13 71.237H360.572V68.3939H360.13V67.541H361.855C362.831 67.541 363.603 67.9845 363.603 68.9284C363.603 69.5084 363.273 69.9519 362.853 70.168L363.341 71.2484H363.807V72.1013H362.706L361.991 70.4409H361.48V71.2484H361.923V72.1013H360.152V71.2484L360.13 71.237ZM358.246 69.9064C358.246 72.1127 359.891 73.7731 361.843 73.7731C363.795 73.7731 365.441 72.1127 365.441 69.9064C365.441 67.7002 363.795 65.9488 361.843 65.9488C359.891 65.9488 358.246 67.6092 358.246 69.9064ZM357.224 69.8723C357.224 67.0747 359.278 64.9253 361.855 64.9253C364.431 64.9253 366.485 67.0861 366.485 69.8723C366.485 72.6586 364.431 74.7966 361.855 74.7966C359.278 74.7966 357.224 72.6472 357.224 69.8723Z" fill="white"/>
</g>
<defs>
<clipPath id="clip0_509_1621">
<rect width="400" height="176" fill="white"/>
</clipPath>
</defs>
</svg>
